<mxfile host="app.diagrams.net" modified="2024-04-11T13:17:34.606Z" agent="Mozilla/5.0 (Macintosh; Intel Mac OS X 10_15_7) AppleWebKit/537.36 (KHTML, like Gecko) Chrome/123.0.0.0 Safari/537.36" etag="pJm7tSwnCu1p18p3kk2d" version="24.2.3" type="device">
  <diagram id="4OhhPIKUNU1crIWAC6Wa" name="Страница — 1">
    <mxGraphModel dx="1137" dy="610" grid="1" gridSize="10" guides="1" tooltips="1" connect="1" arrows="1" fold="1" page="1" pageScale="1" pageWidth="827" pageHeight="1169" math="0" shadow="0">
      <root>
        <mxCell id="0" />
        <mxCell id="1" parent="0" />
        <mxCell id="3QNGo9HYekui6b5nl_Mc-1" value="Tickets" style="shape=table;startSize=30;container=1;collapsible=1;childLayout=tableLayout;fixedRows=1;rowLines=0;fontStyle=1;align=center;resizeLast=1;html=1;" parent="1" vertex="1">
          <mxGeometry x="490" y="420" width="180" height="440" as="geometry">
            <mxRectangle x="920" y="370" width="80" height="30" as="alternateBounds" />
          </mxGeometry>
        </mxCell>
        <mxCell id="3QNGo9HYekui6b5nl_Mc-2" value="" style="shape=tableRow;horizontal=0;startSize=0;swimlaneHead=0;swimlaneBody=0;fillColor=none;collapsible=0;dropTarget=0;points=[[0,0.5],[1,0.5]];portConstraint=eastwest;top=0;left=0;right=0;bottom=1;" parent="3QNGo9HYekui6b5nl_Mc-1" vertex="1">
          <mxGeometry y="30" width="180" height="40" as="geometry" />
        </mxCell>
        <mxCell id="3QNGo9HYekui6b5nl_Mc-3" value="PK" style="shape=partialRectangle;connectable=0;fillColor=none;top=0;left=0;bottom=0;right=0;fontStyle=1;overflow=hidden;whiteSpace=wrap;html=1;" parent="3QNGo9HYekui6b5nl_Mc-2" vertex="1">
          <mxGeometry width="30" height="40" as="geometry">
            <mxRectangle width="30" height="40" as="alternateBounds" />
          </mxGeometry>
        </mxCell>
        <mxCell id="3QNGo9HYekui6b5nl_Mc-4" value="Ticket_ID INTEGER NOT NULL" style="shape=partialRectangle;connectable=0;fillColor=none;top=0;left=0;bottom=0;right=0;align=left;spacingLeft=6;fontStyle=5;overflow=hidden;whiteSpace=wrap;html=1;" parent="3QNGo9HYekui6b5nl_Mc-2" vertex="1">
          <mxGeometry x="30" width="150" height="40" as="geometry">
            <mxRectangle width="150" height="40" as="alternateBounds" />
          </mxGeometry>
        </mxCell>
        <mxCell id="3QNGo9HYekui6b5nl_Mc-5" value="" style="shape=tableRow;horizontal=0;startSize=0;swimlaneHead=0;swimlaneBody=0;fillColor=none;collapsible=0;dropTarget=0;points=[[0,0.5],[1,0.5]];portConstraint=eastwest;top=0;left=0;right=0;bottom=0;" parent="3QNGo9HYekui6b5nl_Mc-1" vertex="1">
          <mxGeometry y="70" width="180" height="40" as="geometry" />
        </mxCell>
        <mxCell id="3QNGo9HYekui6b5nl_Mc-6" value="" style="shape=partialRectangle;connectable=0;fillColor=none;top=0;left=0;bottom=0;right=0;editable=1;overflow=hidden;whiteSpace=wrap;html=1;" parent="3QNGo9HYekui6b5nl_Mc-5" vertex="1">
          <mxGeometry width="30" height="40" as="geometry">
            <mxRectangle width="30" height="40" as="alternateBounds" />
          </mxGeometry>
        </mxCell>
        <mxCell id="3QNGo9HYekui6b5nl_Mc-7" value="Match TEXT NOT NULL&amp;nbsp;" style="shape=partialRectangle;connectable=0;fillColor=none;top=0;left=0;bottom=0;right=0;align=left;spacingLeft=6;overflow=hidden;whiteSpace=wrap;html=1;" parent="3QNGo9HYekui6b5nl_Mc-5" vertex="1">
          <mxGeometry x="30" width="150" height="40" as="geometry">
            <mxRectangle width="150" height="40" as="alternateBounds" />
          </mxGeometry>
        </mxCell>
        <mxCell id="3QNGo9HYekui6b5nl_Mc-8" value="" style="shape=tableRow;horizontal=0;startSize=0;swimlaneHead=0;swimlaneBody=0;fillColor=none;collapsible=0;dropTarget=0;points=[[0,0.5],[1,0.5]];portConstraint=eastwest;top=0;left=0;right=0;bottom=0;" parent="3QNGo9HYekui6b5nl_Mc-1" vertex="1">
          <mxGeometry y="110" width="180" height="30" as="geometry" />
        </mxCell>
        <mxCell id="3QNGo9HYekui6b5nl_Mc-9" value="" style="shape=partialRectangle;connectable=0;fillColor=none;top=0;left=0;bottom=0;right=0;editable=1;overflow=hidden;whiteSpace=wrap;html=1;fontStyle=1" parent="3QNGo9HYekui6b5nl_Mc-8" vertex="1">
          <mxGeometry width="30" height="30" as="geometry">
            <mxRectangle width="30" height="30" as="alternateBounds" />
          </mxGeometry>
        </mxCell>
        <mxCell id="3QNGo9HYekui6b5nl_Mc-10" value="&lt;span style=&quot;font-weight: 400;&quot;&gt;Date of the match NOT NULL&amp;nbsp;&lt;/span&gt;" style="shape=partialRectangle;connectable=0;fillColor=none;top=0;left=0;bottom=0;right=0;align=left;spacingLeft=6;overflow=hidden;whiteSpace=wrap;html=1;fontStyle=1" parent="3QNGo9HYekui6b5nl_Mc-8" vertex="1">
          <mxGeometry x="30" width="150" height="30" as="geometry">
            <mxRectangle width="150" height="30" as="alternateBounds" />
          </mxGeometry>
        </mxCell>
        <mxCell id="3QNGo9HYekui6b5nl_Mc-11" value="" style="shape=tableRow;horizontal=0;startSize=0;swimlaneHead=0;swimlaneBody=0;fillColor=none;collapsible=0;dropTarget=0;points=[[0,0.5],[1,0.5]];portConstraint=eastwest;top=0;left=0;right=0;bottom=0;" parent="3QNGo9HYekui6b5nl_Mc-1" vertex="1">
          <mxGeometry y="140" width="180" height="20" as="geometry" />
        </mxCell>
        <mxCell id="3QNGo9HYekui6b5nl_Mc-12" value="" style="shape=partialRectangle;connectable=0;fillColor=none;top=0;left=0;bottom=0;right=0;editable=1;overflow=hidden;whiteSpace=wrap;html=1;" parent="3QNGo9HYekui6b5nl_Mc-11" vertex="1">
          <mxGeometry width="30" height="20" as="geometry">
            <mxRectangle width="30" height="20" as="alternateBounds" />
          </mxGeometry>
        </mxCell>
        <mxCell id="3QNGo9HYekui6b5nl_Mc-13" value="" style="shape=partialRectangle;connectable=0;fillColor=none;top=0;left=0;bottom=0;right=0;align=left;spacingLeft=6;overflow=hidden;whiteSpace=wrap;html=1;" parent="3QNGo9HYekui6b5nl_Mc-11" vertex="1">
          <mxGeometry x="30" width="150" height="20" as="geometry">
            <mxRectangle width="150" height="20" as="alternateBounds" />
          </mxGeometry>
        </mxCell>
        <mxCell id="3QNGo9HYekui6b5nl_Mc-14" value="" style="shape=tableRow;horizontal=0;startSize=0;swimlaneHead=0;swimlaneBody=0;fillColor=none;collapsible=0;dropTarget=0;points=[[0,0.5],[1,0.5]];portConstraint=eastwest;top=0;left=0;right=0;bottom=0;" parent="3QNGo9HYekui6b5nl_Mc-1" vertex="1">
          <mxGeometry y="160" width="180" height="30" as="geometry" />
        </mxCell>
        <mxCell id="3QNGo9HYekui6b5nl_Mc-15" value="" style="shape=partialRectangle;connectable=0;fillColor=none;top=0;left=0;bottom=0;right=0;editable=1;overflow=hidden;whiteSpace=wrap;html=1;" parent="3QNGo9HYekui6b5nl_Mc-14" vertex="1">
          <mxGeometry width="30" height="30" as="geometry">
            <mxRectangle width="30" height="30" as="alternateBounds" />
          </mxGeometry>
        </mxCell>
        <mxCell id="3QNGo9HYekui6b5nl_Mc-16" value="Age category INTEGER" style="shape=partialRectangle;connectable=0;fillColor=none;top=0;left=0;bottom=0;right=0;align=left;spacingLeft=6;overflow=hidden;whiteSpace=wrap;html=1;" parent="3QNGo9HYekui6b5nl_Mc-14" vertex="1">
          <mxGeometry x="30" width="150" height="30" as="geometry">
            <mxRectangle width="150" height="30" as="alternateBounds" />
          </mxGeometry>
        </mxCell>
        <mxCell id="3QNGo9HYekui6b5nl_Mc-17" value="" style="shape=tableRow;horizontal=0;startSize=0;swimlaneHead=0;swimlaneBody=0;fillColor=none;collapsible=0;dropTarget=0;points=[[0,0.5],[1,0.5]];portConstraint=eastwest;top=0;left=0;right=0;bottom=0;" parent="3QNGo9HYekui6b5nl_Mc-1" vertex="1">
          <mxGeometry y="190" width="180" height="40" as="geometry" />
        </mxCell>
        <mxCell id="3QNGo9HYekui6b5nl_Mc-18" value="" style="shape=partialRectangle;connectable=0;fillColor=none;top=0;left=0;bottom=0;right=0;editable=1;overflow=hidden;whiteSpace=wrap;html=1;" parent="3QNGo9HYekui6b5nl_Mc-17" vertex="1">
          <mxGeometry width="30" height="40" as="geometry">
            <mxRectangle width="30" height="40" as="alternateBounds" />
          </mxGeometry>
        </mxCell>
        <mxCell id="3QNGo9HYekui6b5nl_Mc-19" value="Status TEXT NOT NULL" style="shape=partialRectangle;connectable=0;fillColor=none;top=0;left=0;bottom=0;right=0;align=left;spacingLeft=6;overflow=hidden;whiteSpace=wrap;html=1;" parent="3QNGo9HYekui6b5nl_Mc-17" vertex="1">
          <mxGeometry x="30" width="150" height="40" as="geometry">
            <mxRectangle width="150" height="40" as="alternateBounds" />
          </mxGeometry>
        </mxCell>
        <mxCell id="3QNGo9HYekui6b5nl_Mc-20" value="" style="shape=tableRow;horizontal=0;startSize=0;swimlaneHead=0;swimlaneBody=0;fillColor=none;collapsible=0;dropTarget=0;points=[[0,0.5],[1,0.5]];portConstraint=eastwest;top=0;left=0;right=0;bottom=0;" parent="3QNGo9HYekui6b5nl_Mc-1" vertex="1">
          <mxGeometry y="230" width="180" height="60" as="geometry" />
        </mxCell>
        <mxCell id="3QNGo9HYekui6b5nl_Mc-21" value="" style="shape=partialRectangle;connectable=0;fillColor=none;top=0;left=0;bottom=0;right=0;editable=1;overflow=hidden;whiteSpace=wrap;html=1;" parent="3QNGo9HYekui6b5nl_Mc-20" vertex="1">
          <mxGeometry width="30" height="60" as="geometry">
            <mxRectangle width="30" height="60" as="alternateBounds" />
          </mxGeometry>
        </mxCell>
        <mxCell id="3QNGo9HYekui6b5nl_Mc-22" value="Clubs TEXT NOT NULL" style="shape=partialRectangle;connectable=0;fillColor=none;top=0;left=0;bottom=0;right=0;align=left;spacingLeft=6;overflow=hidden;whiteSpace=wrap;html=1;" parent="3QNGo9HYekui6b5nl_Mc-20" vertex="1">
          <mxGeometry x="30" width="150" height="60" as="geometry">
            <mxRectangle width="150" height="60" as="alternateBounds" />
          </mxGeometry>
        </mxCell>
        <mxCell id="3QNGo9HYekui6b5nl_Mc-23" value="" style="shape=tableRow;horizontal=0;startSize=0;swimlaneHead=0;swimlaneBody=0;fillColor=none;collapsible=0;dropTarget=0;points=[[0,0.5],[1,0.5]];portConstraint=eastwest;top=0;left=0;right=0;bottom=0;" parent="3QNGo9HYekui6b5nl_Mc-1" vertex="1">
          <mxGeometry y="290" width="180" height="40" as="geometry" />
        </mxCell>
        <mxCell id="3QNGo9HYekui6b5nl_Mc-24" value="" style="shape=partialRectangle;connectable=0;fillColor=none;top=0;left=0;bottom=0;right=0;editable=1;overflow=hidden;whiteSpace=wrap;html=1;" parent="3QNGo9HYekui6b5nl_Mc-23" vertex="1">
          <mxGeometry width="30" height="40" as="geometry">
            <mxRectangle width="30" height="40" as="alternateBounds" />
          </mxGeometry>
        </mxCell>
        <mxCell id="3QNGo9HYekui6b5nl_Mc-25" value="Discount INTEGER" style="shape=partialRectangle;connectable=0;fillColor=none;top=0;left=0;bottom=0;right=0;align=left;spacingLeft=6;overflow=hidden;whiteSpace=wrap;html=1;" parent="3QNGo9HYekui6b5nl_Mc-23" vertex="1">
          <mxGeometry x="30" width="150" height="40" as="geometry">
            <mxRectangle width="150" height="40" as="alternateBounds" />
          </mxGeometry>
        </mxCell>
        <mxCell id="3QNGo9HYekui6b5nl_Mc-26" value="" style="shape=tableRow;horizontal=0;startSize=0;swimlaneHead=0;swimlaneBody=0;fillColor=none;collapsible=0;dropTarget=0;points=[[0,0.5],[1,0.5]];portConstraint=eastwest;top=0;left=0;right=0;bottom=0;" parent="3QNGo9HYekui6b5nl_Mc-1" vertex="1">
          <mxGeometry y="330" width="180" height="40" as="geometry" />
        </mxCell>
        <mxCell id="3QNGo9HYekui6b5nl_Mc-27" value="" style="shape=partialRectangle;connectable=0;fillColor=none;top=0;left=0;bottom=0;right=0;editable=1;overflow=hidden;whiteSpace=wrap;html=1;" parent="3QNGo9HYekui6b5nl_Mc-26" vertex="1">
          <mxGeometry width="30" height="40" as="geometry">
            <mxRectangle width="30" height="40" as="alternateBounds" />
          </mxGeometry>
        </mxCell>
        <mxCell id="3QNGo9HYekui6b5nl_Mc-28" value="Host Team TEXT NOT NULL" style="shape=partialRectangle;connectable=0;fillColor=none;top=0;left=0;bottom=0;right=0;align=left;spacingLeft=6;overflow=hidden;whiteSpace=wrap;html=1;" parent="3QNGo9HYekui6b5nl_Mc-26" vertex="1">
          <mxGeometry x="30" width="150" height="40" as="geometry">
            <mxRectangle width="150" height="40" as="alternateBounds" />
          </mxGeometry>
        </mxCell>
        <mxCell id="3QNGo9HYekui6b5nl_Mc-29" value="" style="shape=tableRow;horizontal=0;startSize=0;swimlaneHead=0;swimlaneBody=0;fillColor=none;collapsible=0;dropTarget=0;points=[[0,0.5],[1,0.5]];portConstraint=eastwest;top=0;left=0;right=0;bottom=0;" parent="3QNGo9HYekui6b5nl_Mc-1" vertex="1">
          <mxGeometry y="370" width="180" height="40" as="geometry" />
        </mxCell>
        <mxCell id="3QNGo9HYekui6b5nl_Mc-30" value="" style="shape=partialRectangle;connectable=0;fillColor=none;top=0;left=0;bottom=0;right=0;editable=1;overflow=hidden;whiteSpace=wrap;html=1;" parent="3QNGo9HYekui6b5nl_Mc-29" vertex="1">
          <mxGeometry width="30" height="40" as="geometry">
            <mxRectangle width="30" height="40" as="alternateBounds" />
          </mxGeometry>
        </mxCell>
        <mxCell id="3QNGo9HYekui6b5nl_Mc-31" value="Duration TEXT NOT NULL" style="shape=partialRectangle;connectable=0;fillColor=none;top=0;left=0;bottom=0;right=0;align=left;spacingLeft=6;overflow=hidden;whiteSpace=wrap;html=1;" parent="3QNGo9HYekui6b5nl_Mc-29" vertex="1">
          <mxGeometry x="30" width="150" height="40" as="geometry">
            <mxRectangle width="150" height="40" as="alternateBounds" />
          </mxGeometry>
        </mxCell>
        <mxCell id="3QNGo9HYekui6b5nl_Mc-32" value="" style="shape=tableRow;horizontal=0;startSize=0;swimlaneHead=0;swimlaneBody=0;fillColor=none;collapsible=0;dropTarget=0;points=[[0,0.5],[1,0.5]];portConstraint=eastwest;top=0;left=0;right=0;bottom=0;" parent="3QNGo9HYekui6b5nl_Mc-1" vertex="1">
          <mxGeometry y="410" width="180" height="30" as="geometry" />
        </mxCell>
        <mxCell id="3QNGo9HYekui6b5nl_Mc-33" value="" style="shape=partialRectangle;connectable=0;fillColor=none;top=0;left=0;bottom=0;right=0;editable=1;overflow=hidden;whiteSpace=wrap;html=1;" parent="3QNGo9HYekui6b5nl_Mc-32" vertex="1">
          <mxGeometry width="30" height="30" as="geometry">
            <mxRectangle width="30" height="30" as="alternateBounds" />
          </mxGeometry>
        </mxCell>
        <mxCell id="3QNGo9HYekui6b5nl_Mc-34" value="Stadium TEXT NOT NULL" style="shape=partialRectangle;connectable=0;fillColor=none;top=0;left=0;bottom=0;right=0;align=left;spacingLeft=6;overflow=hidden;whiteSpace=wrap;html=1;" parent="3QNGo9HYekui6b5nl_Mc-32" vertex="1">
          <mxGeometry x="30" width="150" height="30" as="geometry">
            <mxRectangle width="150" height="30" as="alternateBounds" />
          </mxGeometry>
        </mxCell>
        <mxCell id="3QNGo9HYekui6b5nl_Mc-124" value="Club Organisator" style="shape=table;startSize=30;container=1;collapsible=1;childLayout=tableLayout;fixedRows=1;rowLines=0;fontStyle=1;align=center;resizeLast=1;html=1;" parent="1" vertex="1">
          <mxGeometry x="490" y="914" width="180" height="170" as="geometry">
            <mxRectangle x="1090" y="670" width="90" height="30" as="alternateBounds" />
          </mxGeometry>
        </mxCell>
        <mxCell id="3QNGo9HYekui6b5nl_Mc-125" value="" style="shape=tableRow;horizontal=0;startSize=0;swimlaneHead=0;swimlaneBody=0;fillColor=none;collapsible=0;dropTarget=0;points=[[0,0.5],[1,0.5]];portConstraint=eastwest;top=0;left=0;right=0;bottom=1;" parent="3QNGo9HYekui6b5nl_Mc-124" vertex="1">
          <mxGeometry y="30" width="180" height="40" as="geometry" />
        </mxCell>
        <mxCell id="3QNGo9HYekui6b5nl_Mc-126" value="PK" style="shape=partialRectangle;connectable=0;fillColor=none;top=0;left=0;bottom=0;right=0;fontStyle=1;overflow=hidden;whiteSpace=wrap;html=1;" parent="3QNGo9HYekui6b5nl_Mc-125" vertex="1">
          <mxGeometry width="30" height="40" as="geometry">
            <mxRectangle width="30" height="40" as="alternateBounds" />
          </mxGeometry>
        </mxCell>
        <mxCell id="3QNGo9HYekui6b5nl_Mc-127" value="&lt;span style=&quot;text-align: center; text-wrap: nowrap;&quot;&gt;Club Organisator&lt;/span&gt;_ID INTEGER NOT NULL" style="shape=partialRectangle;connectable=0;fillColor=none;top=0;left=0;bottom=0;right=0;align=left;spacingLeft=6;fontStyle=5;overflow=hidden;whiteSpace=wrap;html=1;" parent="3QNGo9HYekui6b5nl_Mc-125" vertex="1">
          <mxGeometry x="30" width="150" height="40" as="geometry">
            <mxRectangle width="150" height="40" as="alternateBounds" />
          </mxGeometry>
        </mxCell>
        <mxCell id="3QNGo9HYekui6b5nl_Mc-131" value="" style="shape=tableRow;horizontal=0;startSize=0;swimlaneHead=0;swimlaneBody=0;fillColor=none;collapsible=0;dropTarget=0;points=[[0,0.5],[1,0.5]];portConstraint=eastwest;top=0;left=0;right=0;bottom=0;" parent="3QNGo9HYekui6b5nl_Mc-124" vertex="1">
          <mxGeometry y="70" width="180" height="40" as="geometry" />
        </mxCell>
        <mxCell id="3QNGo9HYekui6b5nl_Mc-132" value="" style="shape=partialRectangle;connectable=0;fillColor=none;top=0;left=0;bottom=0;right=0;editable=1;overflow=hidden;whiteSpace=wrap;html=1;fontStyle=1" parent="3QNGo9HYekui6b5nl_Mc-131" vertex="1">
          <mxGeometry width="30" height="40" as="geometry">
            <mxRectangle width="30" height="40" as="alternateBounds" />
          </mxGeometry>
        </mxCell>
        <mxCell id="3QNGo9HYekui6b5nl_Mc-133" value="&lt;span style=&quot;font-weight: 400;&quot;&gt;Name TEXT NOT NULL&lt;/span&gt;" style="shape=partialRectangle;connectable=0;fillColor=none;top=0;left=0;bottom=0;right=0;align=left;spacingLeft=6;overflow=hidden;whiteSpace=wrap;html=1;fontStyle=1" parent="3QNGo9HYekui6b5nl_Mc-131" vertex="1">
          <mxGeometry x="30" width="150" height="40" as="geometry">
            <mxRectangle width="150" height="40" as="alternateBounds" />
          </mxGeometry>
        </mxCell>
        <mxCell id="3QNGo9HYekui6b5nl_Mc-134" value="" style="shape=tableRow;horizontal=0;startSize=0;swimlaneHead=0;swimlaneBody=0;fillColor=none;collapsible=0;dropTarget=0;points=[[0,0.5],[1,0.5]];portConstraint=eastwest;top=0;left=0;right=0;bottom=0;" parent="3QNGo9HYekui6b5nl_Mc-124" vertex="1">
          <mxGeometry y="110" width="180" height="20" as="geometry" />
        </mxCell>
        <mxCell id="3QNGo9HYekui6b5nl_Mc-135" value="" style="shape=partialRectangle;connectable=0;fillColor=none;top=0;left=0;bottom=0;right=0;editable=1;overflow=hidden;whiteSpace=wrap;html=1;" parent="3QNGo9HYekui6b5nl_Mc-134" vertex="1">
          <mxGeometry width="30" height="20" as="geometry">
            <mxRectangle width="30" height="20" as="alternateBounds" />
          </mxGeometry>
        </mxCell>
        <mxCell id="3QNGo9HYekui6b5nl_Mc-136" value="Stadium TEXT NOT NULL" style="shape=partialRectangle;connectable=0;fillColor=none;top=0;left=0;bottom=0;right=0;align=left;spacingLeft=6;overflow=hidden;whiteSpace=wrap;html=1;" parent="3QNGo9HYekui6b5nl_Mc-134" vertex="1">
          <mxGeometry x="30" width="150" height="20" as="geometry">
            <mxRectangle width="150" height="20" as="alternateBounds" />
          </mxGeometry>
        </mxCell>
        <mxCell id="3QNGo9HYekui6b5nl_Mc-137" value="" style="shape=tableRow;horizontal=0;startSize=0;swimlaneHead=0;swimlaneBody=0;fillColor=none;collapsible=0;dropTarget=0;points=[[0,0.5],[1,0.5]];portConstraint=eastwest;top=0;left=0;right=0;bottom=0;" parent="3QNGo9HYekui6b5nl_Mc-124" vertex="1">
          <mxGeometry y="130" width="180" height="40" as="geometry" />
        </mxCell>
        <mxCell id="3QNGo9HYekui6b5nl_Mc-138" value="" style="shape=partialRectangle;connectable=0;fillColor=none;top=0;left=0;bottom=0;right=0;editable=1;overflow=hidden;whiteSpace=wrap;html=1;" parent="3QNGo9HYekui6b5nl_Mc-137" vertex="1">
          <mxGeometry width="30" height="40" as="geometry">
            <mxRectangle width="30" height="40" as="alternateBounds" />
          </mxGeometry>
        </mxCell>
        <mxCell id="3QNGo9HYekui6b5nl_Mc-139" value="Amount of organized matches INTEGER" style="shape=partialRectangle;connectable=0;fillColor=none;top=0;left=0;bottom=0;right=0;align=left;spacingLeft=6;overflow=hidden;whiteSpace=wrap;html=1;" parent="3QNGo9HYekui6b5nl_Mc-137" vertex="1">
          <mxGeometry x="30" width="150" height="40" as="geometry">
            <mxRectangle width="150" height="40" as="alternateBounds" />
          </mxGeometry>
        </mxCell>
        <mxCell id="3QNGo9HYekui6b5nl_Mc-149" value="Application for publication" style="shape=table;startSize=30;container=1;collapsible=1;childLayout=tableLayout;fixedRows=1;rowLines=0;fontStyle=1;align=center;resizeLast=1;html=1;" parent="1" vertex="1">
          <mxGeometry x="1150" y="660" width="220" height="400.0000000000002" as="geometry">
            <mxRectangle x="1380" y="520" width="180" height="30" as="alternateBounds" />
          </mxGeometry>
        </mxCell>
        <mxCell id="3QNGo9HYekui6b5nl_Mc-150" value="" style="shape=tableRow;horizontal=0;startSize=0;swimlaneHead=0;swimlaneBody=0;fillColor=none;collapsible=0;dropTarget=0;points=[[0,0.5],[1,0.5]];portConstraint=eastwest;top=0;left=0;right=0;bottom=1;" parent="3QNGo9HYekui6b5nl_Mc-149" vertex="1">
          <mxGeometry y="30" width="220" height="40" as="geometry" />
        </mxCell>
        <mxCell id="3QNGo9HYekui6b5nl_Mc-151" value="PK" style="shape=partialRectangle;connectable=0;fillColor=none;top=0;left=0;bottom=0;right=0;fontStyle=1;overflow=hidden;whiteSpace=wrap;html=1;" parent="3QNGo9HYekui6b5nl_Mc-150" vertex="1">
          <mxGeometry width="30" height="40" as="geometry">
            <mxRectangle width="30" height="40" as="alternateBounds" />
          </mxGeometry>
        </mxCell>
        <mxCell id="3QNGo9HYekui6b5nl_Mc-152" value="Application_ID INTEGER NOT NULL" style="shape=partialRectangle;connectable=0;fillColor=none;top=0;left=0;bottom=0;right=0;align=left;spacingLeft=6;fontStyle=5;overflow=hidden;whiteSpace=wrap;html=1;" parent="3QNGo9HYekui6b5nl_Mc-150" vertex="1">
          <mxGeometry x="30" width="190" height="40" as="geometry">
            <mxRectangle width="190" height="40" as="alternateBounds" />
          </mxGeometry>
        </mxCell>
        <mxCell id="3QNGo9HYekui6b5nl_Mc-156" value="" style="shape=tableRow;horizontal=0;startSize=0;swimlaneHead=0;swimlaneBody=0;fillColor=none;collapsible=0;dropTarget=0;points=[[0,0.5],[1,0.5]];portConstraint=eastwest;top=0;left=0;right=0;bottom=0;" parent="3QNGo9HYekui6b5nl_Mc-149" vertex="1">
          <mxGeometry y="70" width="220" height="40" as="geometry" />
        </mxCell>
        <mxCell id="3QNGo9HYekui6b5nl_Mc-157" value="FK" style="shape=partialRectangle;connectable=0;fillColor=none;top=0;left=0;bottom=0;right=0;editable=1;overflow=hidden;whiteSpace=wrap;html=1;fontStyle=1" parent="3QNGo9HYekui6b5nl_Mc-156" vertex="1">
          <mxGeometry width="30" height="40" as="geometry">
            <mxRectangle width="30" height="40" as="alternateBounds" />
          </mxGeometry>
        </mxCell>
        <mxCell id="3QNGo9HYekui6b5nl_Mc-158" value="Ticket_ID INTEGER NOT NULL" style="shape=partialRectangle;connectable=0;fillColor=none;top=0;left=0;bottom=0;right=0;align=left;spacingLeft=6;overflow=hidden;whiteSpace=wrap;html=1;fontStyle=1" parent="3QNGo9HYekui6b5nl_Mc-156" vertex="1">
          <mxGeometry x="30" width="190" height="40" as="geometry">
            <mxRectangle width="190" height="40" as="alternateBounds" />
          </mxGeometry>
        </mxCell>
        <mxCell id="bgpJgehSFbvpk0qUqzGR-75" value="" style="shape=tableRow;horizontal=0;startSize=0;swimlaneHead=0;swimlaneBody=0;fillColor=none;collapsible=0;dropTarget=0;points=[[0,0.5],[1,0.5]];portConstraint=eastwest;top=0;left=0;right=0;bottom=0;" parent="3QNGo9HYekui6b5nl_Mc-149" vertex="1">
          <mxGeometry y="110" width="220" height="40" as="geometry" />
        </mxCell>
        <mxCell id="bgpJgehSFbvpk0qUqzGR-76" value="" style="shape=partialRectangle;connectable=0;fillColor=none;top=0;left=0;bottom=0;right=0;editable=1;overflow=hidden;whiteSpace=wrap;html=1;fontStyle=1" parent="bgpJgehSFbvpk0qUqzGR-75" vertex="1">
          <mxGeometry width="30" height="40" as="geometry">
            <mxRectangle width="30" height="40" as="alternateBounds" />
          </mxGeometry>
        </mxCell>
        <mxCell id="bgpJgehSFbvpk0qUqzGR-77" value="&lt;span style=&quot;font-weight: normal;&quot;&gt;Match Poster TEXT NOT NULL&lt;/span&gt;" style="shape=partialRectangle;connectable=0;fillColor=none;top=0;left=0;bottom=0;right=0;align=left;spacingLeft=6;overflow=hidden;whiteSpace=wrap;html=1;fontStyle=1" parent="bgpJgehSFbvpk0qUqzGR-75" vertex="1">
          <mxGeometry x="30" width="190" height="40" as="geometry">
            <mxRectangle width="190" height="40" as="alternateBounds" />
          </mxGeometry>
        </mxCell>
        <mxCell id="3QNGo9HYekui6b5nl_Mc-159" value="" style="shape=tableRow;horizontal=0;startSize=0;swimlaneHead=0;swimlaneBody=0;fillColor=none;collapsible=0;dropTarget=0;points=[[0,0.5],[1,0.5]];portConstraint=eastwest;top=0;left=0;right=0;bottom=0;" parent="3QNGo9HYekui6b5nl_Mc-149" vertex="1">
          <mxGeometry y="150" width="220" height="30" as="geometry" />
        </mxCell>
        <mxCell id="3QNGo9HYekui6b5nl_Mc-160" value="" style="shape=partialRectangle;connectable=0;fillColor=none;top=0;left=0;bottom=0;right=0;editable=1;overflow=hidden;whiteSpace=wrap;html=1;" parent="3QNGo9HYekui6b5nl_Mc-159" vertex="1">
          <mxGeometry width="30" height="30" as="geometry">
            <mxRectangle width="30" height="30" as="alternateBounds" />
          </mxGeometry>
        </mxCell>
        <mxCell id="3QNGo9HYekui6b5nl_Mc-161" value="Club Names TEXT NOT NULL" style="shape=partialRectangle;connectable=0;fillColor=none;top=0;left=0;bottom=0;right=0;align=left;spacingLeft=6;overflow=hidden;whiteSpace=wrap;html=1;" parent="3QNGo9HYekui6b5nl_Mc-159" vertex="1">
          <mxGeometry x="30" width="190" height="30" as="geometry">
            <mxRectangle width="190" height="30" as="alternateBounds" />
          </mxGeometry>
        </mxCell>
        <mxCell id="3QNGo9HYekui6b5nl_Mc-162" value="" style="shape=tableRow;horizontal=0;startSize=0;swimlaneHead=0;swimlaneBody=0;fillColor=none;collapsible=0;dropTarget=0;points=[[0,0.5],[1,0.5]];portConstraint=eastwest;top=0;left=0;right=0;bottom=0;" parent="3QNGo9HYekui6b5nl_Mc-149" vertex="1">
          <mxGeometry y="180" width="220" height="30" as="geometry" />
        </mxCell>
        <mxCell id="3QNGo9HYekui6b5nl_Mc-163" value="&lt;b&gt;FK&lt;/b&gt;" style="shape=partialRectangle;connectable=0;fillColor=none;top=0;left=0;bottom=0;right=0;editable=1;overflow=hidden;whiteSpace=wrap;html=1;" parent="3QNGo9HYekui6b5nl_Mc-162" vertex="1">
          <mxGeometry width="30" height="30" as="geometry">
            <mxRectangle width="30" height="30" as="alternateBounds" />
          </mxGeometry>
        </mxCell>
        <mxCell id="3QNGo9HYekui6b5nl_Mc-164" value="&lt;div&gt;&lt;span style=&quot;font-weight: 700; text-align: center; text-wrap: nowrap; background-color: initial;&quot;&gt;Club Organisator&lt;/span&gt;&lt;span style=&quot;font-weight: 700;&quot;&gt;&amp;nbsp;ID INTEGER NOT NULL&amp;nbsp;&lt;/span&gt;&lt;br&gt;&lt;/div&gt;" style="shape=partialRectangle;connectable=0;fillColor=none;top=0;left=0;bottom=0;right=0;align=left;spacingLeft=6;overflow=hidden;whiteSpace=wrap;html=1;" parent="3QNGo9HYekui6b5nl_Mc-162" vertex="1">
          <mxGeometry x="30" width="190" height="30" as="geometry">
            <mxRectangle width="190" height="30" as="alternateBounds" />
          </mxGeometry>
        </mxCell>
        <mxCell id="3QNGo9HYekui6b5nl_Mc-165" value="" style="shape=tableRow;horizontal=0;startSize=0;swimlaneHead=0;swimlaneBody=0;fillColor=none;collapsible=0;dropTarget=0;points=[[0,0.5],[1,0.5]];portConstraint=eastwest;top=0;left=0;right=0;bottom=0;" parent="3QNGo9HYekui6b5nl_Mc-149" vertex="1">
          <mxGeometry y="210" width="220" height="50" as="geometry" />
        </mxCell>
        <mxCell id="3QNGo9HYekui6b5nl_Mc-166" value="" style="shape=partialRectangle;connectable=0;fillColor=none;top=0;left=0;bottom=0;right=0;editable=1;overflow=hidden;whiteSpace=wrap;html=1;" parent="3QNGo9HYekui6b5nl_Mc-165" vertex="1">
          <mxGeometry width="30" height="50" as="geometry">
            <mxRectangle width="30" height="50" as="alternateBounds" />
          </mxGeometry>
        </mxCell>
        <mxCell id="3QNGo9HYekui6b5nl_Mc-167" value="Host Club name TEXT NOT NULL" style="shape=partialRectangle;connectable=0;fillColor=none;top=0;left=0;bottom=0;right=0;align=left;spacingLeft=6;overflow=hidden;whiteSpace=wrap;html=1;" parent="3QNGo9HYekui6b5nl_Mc-165" vertex="1">
          <mxGeometry x="30" width="190" height="50" as="geometry">
            <mxRectangle width="190" height="50" as="alternateBounds" />
          </mxGeometry>
        </mxCell>
        <mxCell id="3QNGo9HYekui6b5nl_Mc-168" value="" style="shape=tableRow;horizontal=0;startSize=0;swimlaneHead=0;swimlaneBody=0;fillColor=none;collapsible=0;dropTarget=0;points=[[0,0.5],[1,0.5]];portConstraint=eastwest;top=0;left=0;right=0;bottom=0;" parent="3QNGo9HYekui6b5nl_Mc-149" vertex="1">
          <mxGeometry y="260" width="220" height="40" as="geometry" />
        </mxCell>
        <mxCell id="3QNGo9HYekui6b5nl_Mc-169" value="" style="shape=partialRectangle;connectable=0;fillColor=none;top=0;left=0;bottom=0;right=0;editable=1;overflow=hidden;whiteSpace=wrap;html=1;" parent="3QNGo9HYekui6b5nl_Mc-168" vertex="1">
          <mxGeometry width="30" height="40" as="geometry">
            <mxRectangle width="30" height="40" as="alternateBounds" />
          </mxGeometry>
        </mxCell>
        <mxCell id="3QNGo9HYekui6b5nl_Mc-170" value="Date INTEGER NOT NULL" style="shape=partialRectangle;connectable=0;fillColor=none;top=0;left=0;bottom=0;right=0;align=left;spacingLeft=6;overflow=hidden;whiteSpace=wrap;html=1;" parent="3QNGo9HYekui6b5nl_Mc-168" vertex="1">
          <mxGeometry x="30" width="190" height="40" as="geometry">
            <mxRectangle width="190" height="40" as="alternateBounds" />
          </mxGeometry>
        </mxCell>
        <mxCell id="3QNGo9HYekui6b5nl_Mc-171" value="" style="shape=tableRow;horizontal=0;startSize=0;swimlaneHead=0;swimlaneBody=0;fillColor=none;collapsible=0;dropTarget=0;points=[[0,0.5],[1,0.5]];portConstraint=eastwest;top=0;left=0;right=0;bottom=0;" parent="3QNGo9HYekui6b5nl_Mc-149" vertex="1">
          <mxGeometry y="300" width="220" height="20" as="geometry" />
        </mxCell>
        <mxCell id="3QNGo9HYekui6b5nl_Mc-172" value="" style="shape=partialRectangle;connectable=0;fillColor=none;top=0;left=0;bottom=0;right=0;editable=1;overflow=hidden;whiteSpace=wrap;html=1;" parent="3QNGo9HYekui6b5nl_Mc-171" vertex="1">
          <mxGeometry width="30" height="20" as="geometry">
            <mxRectangle width="30" height="20" as="alternateBounds" />
          </mxGeometry>
        </mxCell>
        <mxCell id="3QNGo9HYekui6b5nl_Mc-173" value="Status TEXT NOT NULL" style="shape=partialRectangle;connectable=0;fillColor=none;top=0;left=0;bottom=0;right=0;align=left;spacingLeft=6;overflow=hidden;whiteSpace=wrap;html=1;" parent="3QNGo9HYekui6b5nl_Mc-171" vertex="1">
          <mxGeometry x="30" width="190" height="20" as="geometry">
            <mxRectangle width="190" height="20" as="alternateBounds" />
          </mxGeometry>
        </mxCell>
        <mxCell id="bgpJgehSFbvpk0qUqzGR-17" value="" style="shape=tableRow;horizontal=0;startSize=0;swimlaneHead=0;swimlaneBody=0;fillColor=none;collapsible=0;dropTarget=0;points=[[0,0.5],[1,0.5]];portConstraint=eastwest;top=0;left=0;right=0;bottom=0;" parent="3QNGo9HYekui6b5nl_Mc-149" vertex="1">
          <mxGeometry y="320" width="220" height="40" as="geometry" />
        </mxCell>
        <mxCell id="bgpJgehSFbvpk0qUqzGR-18" value="" style="shape=partialRectangle;connectable=0;fillColor=none;top=0;left=0;bottom=0;right=0;editable=1;overflow=hidden;whiteSpace=wrap;html=1;" parent="bgpJgehSFbvpk0qUqzGR-17" vertex="1">
          <mxGeometry width="30" height="40" as="geometry">
            <mxRectangle width="30" height="40" as="alternateBounds" />
          </mxGeometry>
        </mxCell>
        <mxCell id="bgpJgehSFbvpk0qUqzGR-19" value="Weather TEXT NOT NULL" style="shape=partialRectangle;connectable=0;fillColor=none;top=0;left=0;bottom=0;right=0;align=left;spacingLeft=6;overflow=hidden;whiteSpace=wrap;html=1;" parent="bgpJgehSFbvpk0qUqzGR-17" vertex="1">
          <mxGeometry x="30" width="190" height="40" as="geometry">
            <mxRectangle width="190" height="40" as="alternateBounds" />
          </mxGeometry>
        </mxCell>
        <mxCell id="bgpJgehSFbvpk0qUqzGR-72" value="" style="shape=tableRow;horizontal=0;startSize=0;swimlaneHead=0;swimlaneBody=0;fillColor=none;collapsible=0;dropTarget=0;points=[[0,0.5],[1,0.5]];portConstraint=eastwest;top=0;left=0;right=0;bottom=0;" parent="3QNGo9HYekui6b5nl_Mc-149" vertex="1">
          <mxGeometry y="360" width="220" height="40" as="geometry" />
        </mxCell>
        <mxCell id="bgpJgehSFbvpk0qUqzGR-73" value="&lt;b&gt;FK&lt;/b&gt;" style="shape=partialRectangle;connectable=0;fillColor=none;top=0;left=0;bottom=0;right=0;editable=1;overflow=hidden;whiteSpace=wrap;html=1;" parent="bgpJgehSFbvpk0qUqzGR-72" vertex="1">
          <mxGeometry width="30" height="40" as="geometry">
            <mxRectangle width="30" height="40" as="alternateBounds" />
          </mxGeometry>
        </mxCell>
        <mxCell id="bgpJgehSFbvpk0qUqzGR-74" value="&lt;span style=&quot;font-weight: 700; text-align: center; text-wrap: nowrap;&quot;&gt;Administrator for publishing&lt;/span&gt;&lt;span style=&quot;font-weight: 700;&quot;&gt;_ID INTEGER NOT NULL&lt;/span&gt;" style="shape=partialRectangle;connectable=0;fillColor=none;top=0;left=0;bottom=0;right=0;align=left;spacingLeft=6;overflow=hidden;whiteSpace=wrap;html=1;" parent="bgpJgehSFbvpk0qUqzGR-72" vertex="1">
          <mxGeometry x="30" width="190" height="40" as="geometry">
            <mxRectangle width="190" height="40" as="alternateBounds" />
          </mxGeometry>
        </mxCell>
        <mxCell id="uY_qVMkkKcw11evk1t33-1" value="" style="edgeStyle=entityRelationEdgeStyle;fontSize=12;html=1;endArrow=ERmandOne;startArrow=ERmandOne;rounded=0;entryX=0;entryY=0.5;entryDx=0;entryDy=0;exitX=1;exitY=0.5;exitDx=0;exitDy=0;" parent="1" source="3QNGo9HYekui6b5nl_Mc-2" target="bgpJgehSFbvpk0qUqzGR-10" edge="1">
          <mxGeometry width="100" height="100" relative="1" as="geometry">
            <mxPoint x="660" y="520" as="sourcePoint" />
            <mxPoint x="970" y="440" as="targetPoint" />
          </mxGeometry>
        </mxCell>
        <mxCell id="uY_qVMkkKcw11evk1t33-2" value="" style="edgeStyle=entityRelationEdgeStyle;fontSize=12;html=1;endArrow=ERoneToMany;startArrow=ERzeroToMany;rounded=0;entryX=1;entryY=0.5;entryDx=0;entryDy=0;exitX=0;exitY=0.5;exitDx=0;exitDy=0;" parent="1" source="3QNGo9HYekui6b5nl_Mc-88" target="uY_qVMkkKcw11evk1t33-7" edge="1">
          <mxGeometry width="100" height="100" relative="1" as="geometry">
            <mxPoint x="960" y="140" as="sourcePoint" />
            <mxPoint x="827" y="90" as="targetPoint" />
            <Array as="points">
              <mxPoint x="1060" y="430" />
              <mxPoint x="770" y="250" />
              <mxPoint x="690" y="90" />
              <mxPoint x="710" y="140" />
            </Array>
          </mxGeometry>
        </mxCell>
        <mxCell id="uY_qVMkkKcw11evk1t33-3" value="" style="edgeStyle=entityRelationEdgeStyle;fontSize=12;html=1;endArrow=ERoneToMany;startArrow=ERzeroToMany;rounded=0;exitX=0;exitY=0.5;exitDx=0;exitDy=0;entryX=1;entryY=0.5;entryDx=0;entryDy=0;" parent="1" source="3QNGo9HYekui6b5nl_Mc-162" target="3QNGo9HYekui6b5nl_Mc-125" edge="1">
          <mxGeometry width="100" height="100" relative="1" as="geometry">
            <mxPoint x="950" y="812.6315789473684" as="sourcePoint" />
            <mxPoint x="740" y="780" as="targetPoint" />
            <Array as="points">
              <mxPoint x="780" y="260" />
              <mxPoint x="700" y="100" />
              <mxPoint x="720" y="150" />
            </Array>
          </mxGeometry>
        </mxCell>
        <mxCell id="uY_qVMkkKcw11evk1t33-5" value="" style="edgeStyle=entityRelationEdgeStyle;fontSize=12;html=1;endArrow=ERmandOne;startArrow=ERmandOne;rounded=0;entryX=0;entryY=0.5;entryDx=0;entryDy=0;exitX=1;exitY=0.5;exitDx=0;exitDy=0;" parent="1" source="3QNGo9HYekui6b5nl_Mc-2" target="3QNGo9HYekui6b5nl_Mc-156" edge="1">
          <mxGeometry width="100" height="100" relative="1" as="geometry">
            <mxPoint x="470" y="804" as="sourcePoint" />
            <mxPoint x="1109" y="459" as="targetPoint" />
          </mxGeometry>
        </mxCell>
        <mxCell id="uY_qVMkkKcw11evk1t33-6" value="Customer" style="shape=table;startSize=30;container=1;collapsible=1;childLayout=tableLayout;fixedRows=1;rowLines=0;fontStyle=1;align=center;resizeLast=1;html=1;" parent="1" vertex="1">
          <mxGeometry x="490" y="50" width="180" height="310" as="geometry">
            <mxRectangle x="920" y="60" width="80" height="30" as="alternateBounds" />
          </mxGeometry>
        </mxCell>
        <mxCell id="uY_qVMkkKcw11evk1t33-7" value="" style="shape=tableRow;horizontal=0;startSize=0;swimlaneHead=0;swimlaneBody=0;fillColor=none;collapsible=0;dropTarget=0;points=[[0,0.5],[1,0.5]];portConstraint=eastwest;top=0;left=0;right=0;bottom=1;" parent="uY_qVMkkKcw11evk1t33-6" vertex="1">
          <mxGeometry y="30" width="180" height="40" as="geometry" />
        </mxCell>
        <mxCell id="uY_qVMkkKcw11evk1t33-8" value="PK" style="shape=partialRectangle;connectable=0;fillColor=none;top=0;left=0;bottom=0;right=0;fontStyle=1;overflow=hidden;whiteSpace=wrap;html=1;" parent="uY_qVMkkKcw11evk1t33-7" vertex="1">
          <mxGeometry width="30" height="40" as="geometry">
            <mxRectangle width="30" height="40" as="alternateBounds" />
          </mxGeometry>
        </mxCell>
        <mxCell id="uY_qVMkkKcw11evk1t33-9" value="Custumer_ID INTEGER NOT NULL" style="shape=partialRectangle;connectable=0;fillColor=none;top=0;left=0;bottom=0;right=0;align=left;spacingLeft=6;fontStyle=5;overflow=hidden;whiteSpace=wrap;html=1;" parent="uY_qVMkkKcw11evk1t33-7" vertex="1">
          <mxGeometry x="30" width="150" height="40" as="geometry">
            <mxRectangle width="150" height="40" as="alternateBounds" />
          </mxGeometry>
        </mxCell>
        <mxCell id="uY_qVMkkKcw11evk1t33-10" value="" style="shape=tableRow;horizontal=0;startSize=0;swimlaneHead=0;swimlaneBody=0;fillColor=none;collapsible=0;dropTarget=0;points=[[0,0.5],[1,0.5]];portConstraint=eastwest;top=0;left=0;right=0;bottom=0;" parent="uY_qVMkkKcw11evk1t33-6" vertex="1">
          <mxGeometry y="70" width="180" height="40" as="geometry" />
        </mxCell>
        <mxCell id="uY_qVMkkKcw11evk1t33-11" value="" style="shape=partialRectangle;connectable=0;fillColor=none;top=0;left=0;bottom=0;right=0;editable=1;overflow=hidden;whiteSpace=wrap;html=1;" parent="uY_qVMkkKcw11evk1t33-10" vertex="1">
          <mxGeometry width="30" height="40" as="geometry">
            <mxRectangle width="30" height="40" as="alternateBounds" />
          </mxGeometry>
        </mxCell>
        <mxCell id="uY_qVMkkKcw11evk1t33-12" value="Username TEXT NOT NULL&amp;nbsp;" style="shape=partialRectangle;connectable=0;fillColor=none;top=0;left=0;bottom=0;right=0;align=left;spacingLeft=6;overflow=hidden;whiteSpace=wrap;html=1;" parent="uY_qVMkkKcw11evk1t33-10" vertex="1">
          <mxGeometry x="30" width="150" height="40" as="geometry">
            <mxRectangle width="150" height="40" as="alternateBounds" />
          </mxGeometry>
        </mxCell>
        <mxCell id="uY_qVMkkKcw11evk1t33-13" value="" style="shape=tableRow;horizontal=0;startSize=0;swimlaneHead=0;swimlaneBody=0;fillColor=none;collapsible=0;dropTarget=0;points=[[0,0.5],[1,0.5]];portConstraint=eastwest;top=0;left=0;right=0;bottom=0;" parent="uY_qVMkkKcw11evk1t33-6" vertex="1">
          <mxGeometry y="110" width="180" height="30" as="geometry" />
        </mxCell>
        <mxCell id="uY_qVMkkKcw11evk1t33-14" value="" style="shape=partialRectangle;connectable=0;fillColor=none;top=0;left=0;bottom=0;right=0;editable=1;overflow=hidden;whiteSpace=wrap;html=1;fontStyle=1" parent="uY_qVMkkKcw11evk1t33-13" vertex="1">
          <mxGeometry width="30" height="30" as="geometry">
            <mxRectangle width="30" height="30" as="alternateBounds" />
          </mxGeometry>
        </mxCell>
        <mxCell id="uY_qVMkkKcw11evk1t33-15" value="&lt;span style=&quot;font-weight: 400;&quot;&gt;Registration_date INTEGER NOT NULL&amp;nbsp;&lt;/span&gt;" style="shape=partialRectangle;connectable=0;fillColor=none;top=0;left=0;bottom=0;right=0;align=left;spacingLeft=6;overflow=hidden;whiteSpace=wrap;html=1;fontStyle=1" parent="uY_qVMkkKcw11evk1t33-13" vertex="1">
          <mxGeometry x="30" width="150" height="30" as="geometry">
            <mxRectangle width="150" height="30" as="alternateBounds" />
          </mxGeometry>
        </mxCell>
        <mxCell id="uY_qVMkkKcw11evk1t33-16" value="" style="shape=tableRow;horizontal=0;startSize=0;swimlaneHead=0;swimlaneBody=0;fillColor=none;collapsible=0;dropTarget=0;points=[[0,0.5],[1,0.5]];portConstraint=eastwest;top=0;left=0;right=0;bottom=0;" parent="uY_qVMkkKcw11evk1t33-6" vertex="1">
          <mxGeometry y="140" width="180" height="20" as="geometry" />
        </mxCell>
        <mxCell id="uY_qVMkkKcw11evk1t33-17" value="" style="shape=partialRectangle;connectable=0;fillColor=none;top=0;left=0;bottom=0;right=0;editable=1;overflow=hidden;whiteSpace=wrap;html=1;" parent="uY_qVMkkKcw11evk1t33-16" vertex="1">
          <mxGeometry width="30" height="20" as="geometry">
            <mxRectangle width="30" height="20" as="alternateBounds" />
          </mxGeometry>
        </mxCell>
        <mxCell id="uY_qVMkkKcw11evk1t33-18" value="Role TEXT NOT NULL" style="shape=partialRectangle;connectable=0;fillColor=none;top=0;left=0;bottom=0;right=0;align=left;spacingLeft=6;overflow=hidden;whiteSpace=wrap;html=1;" parent="uY_qVMkkKcw11evk1t33-16" vertex="1">
          <mxGeometry x="30" width="150" height="20" as="geometry">
            <mxRectangle width="150" height="20" as="alternateBounds" />
          </mxGeometry>
        </mxCell>
        <mxCell id="uY_qVMkkKcw11evk1t33-19" value="" style="shape=tableRow;horizontal=0;startSize=0;swimlaneHead=0;swimlaneBody=0;fillColor=none;collapsible=0;dropTarget=0;points=[[0,0.5],[1,0.5]];portConstraint=eastwest;top=0;left=0;right=0;bottom=0;" parent="uY_qVMkkKcw11evk1t33-6" vertex="1">
          <mxGeometry y="160" width="180" height="30" as="geometry" />
        </mxCell>
        <mxCell id="uY_qVMkkKcw11evk1t33-20" value="" style="shape=partialRectangle;connectable=0;fillColor=none;top=0;left=0;bottom=0;right=0;editable=1;overflow=hidden;whiteSpace=wrap;html=1;" parent="uY_qVMkkKcw11evk1t33-19" vertex="1">
          <mxGeometry width="30" height="30" as="geometry">
            <mxRectangle width="30" height="30" as="alternateBounds" />
          </mxGeometry>
        </mxCell>
        <mxCell id="uY_qVMkkKcw11evk1t33-21" value="Role_assignment_date INTEGER NOT NULL" style="shape=partialRectangle;connectable=0;fillColor=none;top=0;left=0;bottom=0;right=0;align=left;spacingLeft=6;overflow=hidden;whiteSpace=wrap;html=1;" parent="uY_qVMkkKcw11evk1t33-19" vertex="1">
          <mxGeometry x="30" width="150" height="30" as="geometry">
            <mxRectangle width="150" height="30" as="alternateBounds" />
          </mxGeometry>
        </mxCell>
        <mxCell id="uY_qVMkkKcw11evk1t33-22" value="" style="shape=tableRow;horizontal=0;startSize=0;swimlaneHead=0;swimlaneBody=0;fillColor=none;collapsible=0;dropTarget=0;points=[[0,0.5],[1,0.5]];portConstraint=eastwest;top=0;left=0;right=0;bottom=0;" parent="uY_qVMkkKcw11evk1t33-6" vertex="1">
          <mxGeometry y="190" width="180" height="40" as="geometry" />
        </mxCell>
        <mxCell id="uY_qVMkkKcw11evk1t33-23" value="" style="shape=partialRectangle;connectable=0;fillColor=none;top=0;left=0;bottom=0;right=0;editable=1;overflow=hidden;whiteSpace=wrap;html=1;" parent="uY_qVMkkKcw11evk1t33-22" vertex="1">
          <mxGeometry width="30" height="40" as="geometry">
            <mxRectangle width="30" height="40" as="alternateBounds" />
          </mxGeometry>
        </mxCell>
        <mxCell id="uY_qVMkkKcw11evk1t33-24" value="Discount INTEGER" style="shape=partialRectangle;connectable=0;fillColor=none;top=0;left=0;bottom=0;right=0;align=left;spacingLeft=6;overflow=hidden;whiteSpace=wrap;html=1;" parent="uY_qVMkkKcw11evk1t33-22" vertex="1">
          <mxGeometry x="30" width="150" height="40" as="geometry">
            <mxRectangle width="150" height="40" as="alternateBounds" />
          </mxGeometry>
        </mxCell>
        <mxCell id="uY_qVMkkKcw11evk1t33-25" value="" style="shape=tableRow;horizontal=0;startSize=0;swimlaneHead=0;swimlaneBody=0;fillColor=none;collapsible=0;dropTarget=0;points=[[0,0.5],[1,0.5]];portConstraint=eastwest;top=0;left=0;right=0;bottom=0;" parent="uY_qVMkkKcw11evk1t33-6" vertex="1">
          <mxGeometry y="230" width="180" height="40" as="geometry" />
        </mxCell>
        <mxCell id="uY_qVMkkKcw11evk1t33-26" value="" style="shape=partialRectangle;connectable=0;fillColor=none;top=0;left=0;bottom=0;right=0;editable=1;overflow=hidden;whiteSpace=wrap;html=1;" parent="uY_qVMkkKcw11evk1t33-25" vertex="1">
          <mxGeometry width="30" height="40" as="geometry">
            <mxRectangle width="30" height="40" as="alternateBounds" />
          </mxGeometry>
        </mxCell>
        <mxCell id="uY_qVMkkKcw11evk1t33-27" value="Birth_date INTEGER NOT NULL" style="shape=partialRectangle;connectable=0;fillColor=none;top=0;left=0;bottom=0;right=0;align=left;spacingLeft=6;overflow=hidden;whiteSpace=wrap;html=1;" parent="uY_qVMkkKcw11evk1t33-25" vertex="1">
          <mxGeometry x="30" width="150" height="40" as="geometry">
            <mxRectangle width="150" height="40" as="alternateBounds" />
          </mxGeometry>
        </mxCell>
        <mxCell id="bgpJgehSFbvpk0qUqzGR-1" value="" style="shape=tableRow;horizontal=0;startSize=0;swimlaneHead=0;swimlaneBody=0;fillColor=none;collapsible=0;dropTarget=0;points=[[0,0.5],[1,0.5]];portConstraint=eastwest;top=0;left=0;right=0;bottom=0;" parent="uY_qVMkkKcw11evk1t33-6" vertex="1">
          <mxGeometry y="270" width="180" height="40" as="geometry" />
        </mxCell>
        <mxCell id="bgpJgehSFbvpk0qUqzGR-2" value="" style="shape=partialRectangle;connectable=0;fillColor=none;top=0;left=0;bottom=0;right=0;editable=1;overflow=hidden;whiteSpace=wrap;html=1;" parent="bgpJgehSFbvpk0qUqzGR-1" vertex="1">
          <mxGeometry width="30" height="40" as="geometry">
            <mxRectangle width="30" height="40" as="alternateBounds" />
          </mxGeometry>
        </mxCell>
        <mxCell id="bgpJgehSFbvpk0qUqzGR-3" value="Date_end_od_discount INTEGER NOT NULL" style="shape=partialRectangle;connectable=0;fillColor=none;top=0;left=0;bottom=0;right=0;align=left;spacingLeft=6;overflow=hidden;whiteSpace=wrap;html=1;" parent="bgpJgehSFbvpk0qUqzGR-1" vertex="1">
          <mxGeometry x="30" width="150" height="40" as="geometry">
            <mxRectangle width="150" height="40" as="alternateBounds" />
          </mxGeometry>
        </mxCell>
        <mxCell id="uY_qVMkkKcw11evk1t33-31" value="Administrator for selling" style="shape=table;startSize=30;container=1;collapsible=1;childLayout=tableLayout;fixedRows=1;rowLines=0;fontStyle=1;align=center;resizeLast=1;html=1;" parent="1" vertex="1">
          <mxGeometry x="1515" y="190" width="210" height="320" as="geometry">
            <mxRectangle x="920" y="60" width="80" height="30" as="alternateBounds" />
          </mxGeometry>
        </mxCell>
        <mxCell id="uY_qVMkkKcw11evk1t33-32" value="" style="shape=tableRow;horizontal=0;startSize=0;swimlaneHead=0;swimlaneBody=0;fillColor=none;collapsible=0;dropTarget=0;points=[[0,0.5],[1,0.5]];portConstraint=eastwest;top=0;left=0;right=0;bottom=1;" parent="uY_qVMkkKcw11evk1t33-31" vertex="1">
          <mxGeometry y="30" width="210" height="50" as="geometry" />
        </mxCell>
        <mxCell id="uY_qVMkkKcw11evk1t33-33" value="PK" style="shape=partialRectangle;connectable=0;fillColor=none;top=0;left=0;bottom=0;right=0;fontStyle=1;overflow=hidden;whiteSpace=wrap;html=1;" parent="uY_qVMkkKcw11evk1t33-32" vertex="1">
          <mxGeometry width="30" height="50" as="geometry">
            <mxRectangle width="30" height="50" as="alternateBounds" />
          </mxGeometry>
        </mxCell>
        <mxCell id="uY_qVMkkKcw11evk1t33-34" value="&lt;span style=&quot;text-align: center; text-wrap: nowrap;&quot;&gt;Administrator for selling&lt;/span&gt;_ID INTEGER NOT NULL" style="shape=partialRectangle;connectable=0;fillColor=none;top=0;left=0;bottom=0;right=0;align=left;spacingLeft=6;fontStyle=5;overflow=hidden;whiteSpace=wrap;html=1;" parent="uY_qVMkkKcw11evk1t33-32" vertex="1">
          <mxGeometry x="30" width="180" height="50" as="geometry">
            <mxRectangle width="180" height="50" as="alternateBounds" />
          </mxGeometry>
        </mxCell>
        <mxCell id="uY_qVMkkKcw11evk1t33-35" value="" style="shape=tableRow;horizontal=0;startSize=0;swimlaneHead=0;swimlaneBody=0;fillColor=none;collapsible=0;dropTarget=0;points=[[0,0.5],[1,0.5]];portConstraint=eastwest;top=0;left=0;right=0;bottom=0;" parent="uY_qVMkkKcw11evk1t33-31" vertex="1">
          <mxGeometry y="80" width="210" height="40" as="geometry" />
        </mxCell>
        <mxCell id="uY_qVMkkKcw11evk1t33-36" value="" style="shape=partialRectangle;connectable=0;fillColor=none;top=0;left=0;bottom=0;right=0;editable=1;overflow=hidden;whiteSpace=wrap;html=1;" parent="uY_qVMkkKcw11evk1t33-35" vertex="1">
          <mxGeometry width="30" height="40" as="geometry">
            <mxRectangle width="30" height="40" as="alternateBounds" />
          </mxGeometry>
        </mxCell>
        <mxCell id="uY_qVMkkKcw11evk1t33-37" value="Username TEXT NOT NULL&amp;nbsp;" style="shape=partialRectangle;connectable=0;fillColor=none;top=0;left=0;bottom=0;right=0;align=left;spacingLeft=6;overflow=hidden;whiteSpace=wrap;html=1;" parent="uY_qVMkkKcw11evk1t33-35" vertex="1">
          <mxGeometry x="30" width="180" height="40" as="geometry">
            <mxRectangle width="180" height="40" as="alternateBounds" />
          </mxGeometry>
        </mxCell>
        <mxCell id="uY_qVMkkKcw11evk1t33-38" value="" style="shape=tableRow;horizontal=0;startSize=0;swimlaneHead=0;swimlaneBody=0;fillColor=none;collapsible=0;dropTarget=0;points=[[0,0.5],[1,0.5]];portConstraint=eastwest;top=0;left=0;right=0;bottom=0;" parent="uY_qVMkkKcw11evk1t33-31" vertex="1">
          <mxGeometry y="120" width="210" height="30" as="geometry" />
        </mxCell>
        <mxCell id="uY_qVMkkKcw11evk1t33-39" value="" style="shape=partialRectangle;connectable=0;fillColor=none;top=0;left=0;bottom=0;right=0;editable=1;overflow=hidden;whiteSpace=wrap;html=1;fontStyle=1" parent="uY_qVMkkKcw11evk1t33-38" vertex="1">
          <mxGeometry width="30" height="30" as="geometry">
            <mxRectangle width="30" height="30" as="alternateBounds" />
          </mxGeometry>
        </mxCell>
        <mxCell id="uY_qVMkkKcw11evk1t33-40" value="&lt;span style=&quot;font-weight: 400;&quot;&gt;Registration_date INTEGER NOT NULL&amp;nbsp;&lt;/span&gt;" style="shape=partialRectangle;connectable=0;fillColor=none;top=0;left=0;bottom=0;right=0;align=left;spacingLeft=6;overflow=hidden;whiteSpace=wrap;html=1;fontStyle=1" parent="uY_qVMkkKcw11evk1t33-38" vertex="1">
          <mxGeometry x="30" width="180" height="30" as="geometry">
            <mxRectangle width="180" height="30" as="alternateBounds" />
          </mxGeometry>
        </mxCell>
        <mxCell id="uY_qVMkkKcw11evk1t33-41" value="" style="shape=tableRow;horizontal=0;startSize=0;swimlaneHead=0;swimlaneBody=0;fillColor=none;collapsible=0;dropTarget=0;points=[[0,0.5],[1,0.5]];portConstraint=eastwest;top=0;left=0;right=0;bottom=0;" parent="uY_qVMkkKcw11evk1t33-31" vertex="1">
          <mxGeometry y="150" width="210" height="20" as="geometry" />
        </mxCell>
        <mxCell id="uY_qVMkkKcw11evk1t33-42" value="" style="shape=partialRectangle;connectable=0;fillColor=none;top=0;left=0;bottom=0;right=0;editable=1;overflow=hidden;whiteSpace=wrap;html=1;" parent="uY_qVMkkKcw11evk1t33-41" vertex="1">
          <mxGeometry width="30" height="20" as="geometry">
            <mxRectangle width="30" height="20" as="alternateBounds" />
          </mxGeometry>
        </mxCell>
        <mxCell id="uY_qVMkkKcw11evk1t33-43" value="Role TEXT NOT NULL" style="shape=partialRectangle;connectable=0;fillColor=none;top=0;left=0;bottom=0;right=0;align=left;spacingLeft=6;overflow=hidden;whiteSpace=wrap;html=1;" parent="uY_qVMkkKcw11evk1t33-41" vertex="1">
          <mxGeometry x="30" width="180" height="20" as="geometry">
            <mxRectangle width="180" height="20" as="alternateBounds" />
          </mxGeometry>
        </mxCell>
        <mxCell id="uY_qVMkkKcw11evk1t33-44" value="" style="shape=tableRow;horizontal=0;startSize=0;swimlaneHead=0;swimlaneBody=0;fillColor=none;collapsible=0;dropTarget=0;points=[[0,0.5],[1,0.5]];portConstraint=eastwest;top=0;left=0;right=0;bottom=0;" parent="uY_qVMkkKcw11evk1t33-31" vertex="1">
          <mxGeometry y="170" width="210" height="30" as="geometry" />
        </mxCell>
        <mxCell id="uY_qVMkkKcw11evk1t33-45" value="" style="shape=partialRectangle;connectable=0;fillColor=none;top=0;left=0;bottom=0;right=0;editable=1;overflow=hidden;whiteSpace=wrap;html=1;" parent="uY_qVMkkKcw11evk1t33-44" vertex="1">
          <mxGeometry width="30" height="30" as="geometry">
            <mxRectangle width="30" height="30" as="alternateBounds" />
          </mxGeometry>
        </mxCell>
        <mxCell id="uY_qVMkkKcw11evk1t33-46" value="Role_assignment_date INTEGER NOT NULL" style="shape=partialRectangle;connectable=0;fillColor=none;top=0;left=0;bottom=0;right=0;align=left;spacingLeft=6;overflow=hidden;whiteSpace=wrap;html=1;" parent="uY_qVMkkKcw11evk1t33-44" vertex="1">
          <mxGeometry x="30" width="180" height="30" as="geometry">
            <mxRectangle width="180" height="30" as="alternateBounds" />
          </mxGeometry>
        </mxCell>
        <mxCell id="uY_qVMkkKcw11evk1t33-47" value="" style="shape=tableRow;horizontal=0;startSize=0;swimlaneHead=0;swimlaneBody=0;fillColor=none;collapsible=0;dropTarget=0;points=[[0,0.5],[1,0.5]];portConstraint=eastwest;top=0;left=0;right=0;bottom=0;" parent="uY_qVMkkKcw11evk1t33-31" vertex="1">
          <mxGeometry y="200" width="210" height="40" as="geometry" />
        </mxCell>
        <mxCell id="uY_qVMkkKcw11evk1t33-48" value="" style="shape=partialRectangle;connectable=0;fillColor=none;top=0;left=0;bottom=0;right=0;editable=1;overflow=hidden;whiteSpace=wrap;html=1;" parent="uY_qVMkkKcw11evk1t33-47" vertex="1">
          <mxGeometry width="30" height="40" as="geometry">
            <mxRectangle width="30" height="40" as="alternateBounds" />
          </mxGeometry>
        </mxCell>
        <mxCell id="uY_qVMkkKcw11evk1t33-49" value="Discount INTEGER" style="shape=partialRectangle;connectable=0;fillColor=none;top=0;left=0;bottom=0;right=0;align=left;spacingLeft=6;overflow=hidden;whiteSpace=wrap;html=1;" parent="uY_qVMkkKcw11evk1t33-47" vertex="1">
          <mxGeometry x="30" width="180" height="40" as="geometry">
            <mxRectangle width="180" height="40" as="alternateBounds" />
          </mxGeometry>
        </mxCell>
        <mxCell id="uY_qVMkkKcw11evk1t33-50" value="" style="shape=tableRow;horizontal=0;startSize=0;swimlaneHead=0;swimlaneBody=0;fillColor=none;collapsible=0;dropTarget=0;points=[[0,0.5],[1,0.5]];portConstraint=eastwest;top=0;left=0;right=0;bottom=0;" parent="uY_qVMkkKcw11evk1t33-31" vertex="1">
          <mxGeometry y="240" width="210" height="40" as="geometry" />
        </mxCell>
        <mxCell id="uY_qVMkkKcw11evk1t33-51" value="" style="shape=partialRectangle;connectable=0;fillColor=none;top=0;left=0;bottom=0;right=0;editable=1;overflow=hidden;whiteSpace=wrap;html=1;" parent="uY_qVMkkKcw11evk1t33-50" vertex="1">
          <mxGeometry width="30" height="40" as="geometry">
            <mxRectangle width="30" height="40" as="alternateBounds" />
          </mxGeometry>
        </mxCell>
        <mxCell id="uY_qVMkkKcw11evk1t33-52" value="Birth_date INTEGER NOT NULL" style="shape=partialRectangle;connectable=0;fillColor=none;top=0;left=0;bottom=0;right=0;align=left;spacingLeft=6;overflow=hidden;whiteSpace=wrap;html=1;" parent="uY_qVMkkKcw11evk1t33-50" vertex="1">
          <mxGeometry x="30" width="180" height="40" as="geometry">
            <mxRectangle width="180" height="40" as="alternateBounds" />
          </mxGeometry>
        </mxCell>
        <mxCell id="uY_qVMkkKcw11evk1t33-53" value="" style="shape=tableRow;horizontal=0;startSize=0;swimlaneHead=0;swimlaneBody=0;fillColor=none;collapsible=0;dropTarget=0;points=[[0,0.5],[1,0.5]];portConstraint=eastwest;top=0;left=0;right=0;bottom=0;" parent="uY_qVMkkKcw11evk1t33-31" vertex="1">
          <mxGeometry y="280" width="210" height="40" as="geometry" />
        </mxCell>
        <mxCell id="uY_qVMkkKcw11evk1t33-54" value="" style="shape=partialRectangle;connectable=0;fillColor=none;top=0;left=0;bottom=0;right=0;editable=1;overflow=hidden;whiteSpace=wrap;html=1;" parent="uY_qVMkkKcw11evk1t33-53" vertex="1">
          <mxGeometry width="30" height="40" as="geometry">
            <mxRectangle width="30" height="40" as="alternateBounds" />
          </mxGeometry>
        </mxCell>
        <mxCell id="uY_qVMkkKcw11evk1t33-55" value="Date_end_od_discount INTEGER NOT NULL" style="shape=partialRectangle;connectable=0;fillColor=none;top=0;left=0;bottom=0;right=0;align=left;spacingLeft=6;overflow=hidden;whiteSpace=wrap;html=1;" parent="uY_qVMkkKcw11evk1t33-53" vertex="1">
          <mxGeometry x="30" width="180" height="40" as="geometry">
            <mxRectangle width="180" height="40" as="alternateBounds" />
          </mxGeometry>
        </mxCell>
        <mxCell id="uY_qVMkkKcw11evk1t33-56" value="" style="edgeStyle=entityRelationEdgeStyle;fontSize=12;html=1;endArrow=ERzeroToMany;startArrow=ERmandOne;rounded=0;entryX=1;entryY=0.5;entryDx=0;entryDy=0;" parent="1" source="uY_qVMkkKcw11evk1t33-32" target="3QNGo9HYekui6b5nl_Mc-100" edge="1">
          <mxGeometry width="100" height="100" relative="1" as="geometry">
            <mxPoint x="240" y="570" as="sourcePoint" />
            <mxPoint x="1320" y="455" as="targetPoint" />
          </mxGeometry>
        </mxCell>
        <mxCell id="uY_qVMkkKcw11evk1t33-58" value="Administrator for publishing" style="shape=table;startSize=30;container=1;collapsible=1;childLayout=tableLayout;fixedRows=1;rowLines=0;fontStyle=1;align=center;resizeLast=1;html=1;" parent="1" vertex="1">
          <mxGeometry x="1530" y="610" width="230" height="304.0000000000002" as="geometry">
            <mxRectangle x="920" y="60" width="80" height="30" as="alternateBounds" />
          </mxGeometry>
        </mxCell>
        <mxCell id="uY_qVMkkKcw11evk1t33-59" value="" style="shape=tableRow;horizontal=0;startSize=0;swimlaneHead=0;swimlaneBody=0;fillColor=none;collapsible=0;dropTarget=0;points=[[0,0.5],[1,0.5]];portConstraint=eastwest;top=0;left=0;right=0;bottom=1;" parent="uY_qVMkkKcw11evk1t33-58" vertex="1">
          <mxGeometry y="30" width="230" height="40" as="geometry" />
        </mxCell>
        <mxCell id="uY_qVMkkKcw11evk1t33-60" value="PK" style="shape=partialRectangle;connectable=0;fillColor=none;top=0;left=0;bottom=0;right=0;fontStyle=1;overflow=hidden;whiteSpace=wrap;html=1;" parent="uY_qVMkkKcw11evk1t33-59" vertex="1">
          <mxGeometry width="30" height="40" as="geometry">
            <mxRectangle width="30" height="40" as="alternateBounds" />
          </mxGeometry>
        </mxCell>
        <mxCell id="uY_qVMkkKcw11evk1t33-61" value="&lt;span style=&quot;text-align: center; text-wrap: nowrap;&quot;&gt;Administrator for publishing&lt;/span&gt;_ID INTEGER NOT NULL" style="shape=partialRectangle;connectable=0;fillColor=none;top=0;left=0;bottom=0;right=0;align=left;spacingLeft=6;fontStyle=5;overflow=hidden;whiteSpace=wrap;html=1;" parent="uY_qVMkkKcw11evk1t33-59" vertex="1">
          <mxGeometry x="30" width="200" height="40" as="geometry">
            <mxRectangle width="200" height="40" as="alternateBounds" />
          </mxGeometry>
        </mxCell>
        <mxCell id="uY_qVMkkKcw11evk1t33-62" value="" style="shape=tableRow;horizontal=0;startSize=0;swimlaneHead=0;swimlaneBody=0;fillColor=none;collapsible=0;dropTarget=0;points=[[0,0.5],[1,0.5]];portConstraint=eastwest;top=0;left=0;right=0;bottom=0;" parent="uY_qVMkkKcw11evk1t33-58" vertex="1">
          <mxGeometry y="70" width="230" height="40" as="geometry" />
        </mxCell>
        <mxCell id="uY_qVMkkKcw11evk1t33-63" value="" style="shape=partialRectangle;connectable=0;fillColor=none;top=0;left=0;bottom=0;right=0;editable=1;overflow=hidden;whiteSpace=wrap;html=1;" parent="uY_qVMkkKcw11evk1t33-62" vertex="1">
          <mxGeometry width="30" height="40" as="geometry">
            <mxRectangle width="30" height="40" as="alternateBounds" />
          </mxGeometry>
        </mxCell>
        <mxCell id="uY_qVMkkKcw11evk1t33-64" value="Username TEXT NOT NULL&amp;nbsp;" style="shape=partialRectangle;connectable=0;fillColor=none;top=0;left=0;bottom=0;right=0;align=left;spacingLeft=6;overflow=hidden;whiteSpace=wrap;html=1;" parent="uY_qVMkkKcw11evk1t33-62" vertex="1">
          <mxGeometry x="30" width="200" height="40" as="geometry">
            <mxRectangle width="200" height="40" as="alternateBounds" />
          </mxGeometry>
        </mxCell>
        <mxCell id="uY_qVMkkKcw11evk1t33-65" value="" style="shape=tableRow;horizontal=0;startSize=0;swimlaneHead=0;swimlaneBody=0;fillColor=none;collapsible=0;dropTarget=0;points=[[0,0.5],[1,0.5]];portConstraint=eastwest;top=0;left=0;right=0;bottom=0;" parent="uY_qVMkkKcw11evk1t33-58" vertex="1">
          <mxGeometry y="110" width="230" height="30" as="geometry" />
        </mxCell>
        <mxCell id="uY_qVMkkKcw11evk1t33-66" value="" style="shape=partialRectangle;connectable=0;fillColor=none;top=0;left=0;bottom=0;right=0;editable=1;overflow=hidden;whiteSpace=wrap;html=1;fontStyle=1" parent="uY_qVMkkKcw11evk1t33-65" vertex="1">
          <mxGeometry width="30" height="30" as="geometry">
            <mxRectangle width="30" height="30" as="alternateBounds" />
          </mxGeometry>
        </mxCell>
        <mxCell id="uY_qVMkkKcw11evk1t33-67" value="&lt;span style=&quot;font-weight: 400;&quot;&gt;Registration_date INTEGER NOT NULL&amp;nbsp;&lt;/span&gt;" style="shape=partialRectangle;connectable=0;fillColor=none;top=0;left=0;bottom=0;right=0;align=left;spacingLeft=6;overflow=hidden;whiteSpace=wrap;html=1;fontStyle=1" parent="uY_qVMkkKcw11evk1t33-65" vertex="1">
          <mxGeometry x="30" width="200" height="30" as="geometry">
            <mxRectangle width="200" height="30" as="alternateBounds" />
          </mxGeometry>
        </mxCell>
        <mxCell id="uY_qVMkkKcw11evk1t33-68" value="" style="shape=tableRow;horizontal=0;startSize=0;swimlaneHead=0;swimlaneBody=0;fillColor=none;collapsible=0;dropTarget=0;points=[[0,0.5],[1,0.5]];portConstraint=eastwest;top=0;left=0;right=0;bottom=0;" parent="uY_qVMkkKcw11evk1t33-58" vertex="1">
          <mxGeometry y="140" width="230" height="20" as="geometry" />
        </mxCell>
        <mxCell id="uY_qVMkkKcw11evk1t33-69" value="" style="shape=partialRectangle;connectable=0;fillColor=none;top=0;left=0;bottom=0;right=0;editable=1;overflow=hidden;whiteSpace=wrap;html=1;" parent="uY_qVMkkKcw11evk1t33-68" vertex="1">
          <mxGeometry width="30" height="20" as="geometry">
            <mxRectangle width="30" height="20" as="alternateBounds" />
          </mxGeometry>
        </mxCell>
        <mxCell id="uY_qVMkkKcw11evk1t33-70" value="Role TEXT NOT NULL" style="shape=partialRectangle;connectable=0;fillColor=none;top=0;left=0;bottom=0;right=0;align=left;spacingLeft=6;overflow=hidden;whiteSpace=wrap;html=1;" parent="uY_qVMkkKcw11evk1t33-68" vertex="1">
          <mxGeometry x="30" width="200" height="20" as="geometry">
            <mxRectangle width="200" height="20" as="alternateBounds" />
          </mxGeometry>
        </mxCell>
        <mxCell id="uY_qVMkkKcw11evk1t33-71" value="" style="shape=tableRow;horizontal=0;startSize=0;swimlaneHead=0;swimlaneBody=0;fillColor=none;collapsible=0;dropTarget=0;points=[[0,0.5],[1,0.5]];portConstraint=eastwest;top=0;left=0;right=0;bottom=0;" parent="uY_qVMkkKcw11evk1t33-58" vertex="1">
          <mxGeometry y="160" width="230" height="30" as="geometry" />
        </mxCell>
        <mxCell id="uY_qVMkkKcw11evk1t33-72" value="" style="shape=partialRectangle;connectable=0;fillColor=none;top=0;left=0;bottom=0;right=0;editable=1;overflow=hidden;whiteSpace=wrap;html=1;" parent="uY_qVMkkKcw11evk1t33-71" vertex="1">
          <mxGeometry width="30" height="30" as="geometry">
            <mxRectangle width="30" height="30" as="alternateBounds" />
          </mxGeometry>
        </mxCell>
        <mxCell id="uY_qVMkkKcw11evk1t33-73" value="Role_assignment_date INTEGER NOT NULL" style="shape=partialRectangle;connectable=0;fillColor=none;top=0;left=0;bottom=0;right=0;align=left;spacingLeft=6;overflow=hidden;whiteSpace=wrap;html=1;" parent="uY_qVMkkKcw11evk1t33-71" vertex="1">
          <mxGeometry x="30" width="200" height="30" as="geometry">
            <mxRectangle width="200" height="30" as="alternateBounds" />
          </mxGeometry>
        </mxCell>
        <mxCell id="uY_qVMkkKcw11evk1t33-74" value="" style="shape=tableRow;horizontal=0;startSize=0;swimlaneHead=0;swimlaneBody=0;fillColor=none;collapsible=0;dropTarget=0;points=[[0,0.5],[1,0.5]];portConstraint=eastwest;top=0;left=0;right=0;bottom=0;" parent="uY_qVMkkKcw11evk1t33-58" vertex="1">
          <mxGeometry y="190" width="230" height="40" as="geometry" />
        </mxCell>
        <mxCell id="uY_qVMkkKcw11evk1t33-75" value="" style="shape=partialRectangle;connectable=0;fillColor=none;top=0;left=0;bottom=0;right=0;editable=1;overflow=hidden;whiteSpace=wrap;html=1;" parent="uY_qVMkkKcw11evk1t33-74" vertex="1">
          <mxGeometry width="30" height="40" as="geometry">
            <mxRectangle width="30" height="40" as="alternateBounds" />
          </mxGeometry>
        </mxCell>
        <mxCell id="uY_qVMkkKcw11evk1t33-76" value="Discount INTEGER" style="shape=partialRectangle;connectable=0;fillColor=none;top=0;left=0;bottom=0;right=0;align=left;spacingLeft=6;overflow=hidden;whiteSpace=wrap;html=1;" parent="uY_qVMkkKcw11evk1t33-74" vertex="1">
          <mxGeometry x="30" width="200" height="40" as="geometry">
            <mxRectangle width="200" height="40" as="alternateBounds" />
          </mxGeometry>
        </mxCell>
        <mxCell id="uY_qVMkkKcw11evk1t33-77" value="" style="shape=tableRow;horizontal=0;startSize=0;swimlaneHead=0;swimlaneBody=0;fillColor=none;collapsible=0;dropTarget=0;points=[[0,0.5],[1,0.5]];portConstraint=eastwest;top=0;left=0;right=0;bottom=0;" parent="uY_qVMkkKcw11evk1t33-58" vertex="1">
          <mxGeometry y="230" width="230" height="40" as="geometry" />
        </mxCell>
        <mxCell id="uY_qVMkkKcw11evk1t33-78" value="" style="shape=partialRectangle;connectable=0;fillColor=none;top=0;left=0;bottom=0;right=0;editable=1;overflow=hidden;whiteSpace=wrap;html=1;" parent="uY_qVMkkKcw11evk1t33-77" vertex="1">
          <mxGeometry width="30" height="40" as="geometry">
            <mxRectangle width="30" height="40" as="alternateBounds" />
          </mxGeometry>
        </mxCell>
        <mxCell id="uY_qVMkkKcw11evk1t33-79" value="Birth_date INTEGER NOT NULL" style="shape=partialRectangle;connectable=0;fillColor=none;top=0;left=0;bottom=0;right=0;align=left;spacingLeft=6;overflow=hidden;whiteSpace=wrap;html=1;" parent="uY_qVMkkKcw11evk1t33-77" vertex="1">
          <mxGeometry x="30" width="200" height="40" as="geometry">
            <mxRectangle width="200" height="40" as="alternateBounds" />
          </mxGeometry>
        </mxCell>
        <mxCell id="uY_qVMkkKcw11evk1t33-80" value="" style="shape=tableRow;horizontal=0;startSize=0;swimlaneHead=0;swimlaneBody=0;fillColor=none;collapsible=0;dropTarget=0;points=[[0,0.5],[1,0.5]];portConstraint=eastwest;top=0;left=0;right=0;bottom=0;" parent="uY_qVMkkKcw11evk1t33-58" vertex="1">
          <mxGeometry y="270" width="230" height="34" as="geometry" />
        </mxCell>
        <mxCell id="uY_qVMkkKcw11evk1t33-81" value="" style="shape=partialRectangle;connectable=0;fillColor=none;top=0;left=0;bottom=0;right=0;editable=1;overflow=hidden;whiteSpace=wrap;html=1;" parent="uY_qVMkkKcw11evk1t33-80" vertex="1">
          <mxGeometry width="30" height="34" as="geometry">
            <mxRectangle width="30" height="34" as="alternateBounds" />
          </mxGeometry>
        </mxCell>
        <mxCell id="uY_qVMkkKcw11evk1t33-82" value="Date_end_od_discount INTEGER NOT NULL" style="shape=partialRectangle;connectable=0;fillColor=none;top=0;left=0;bottom=0;right=0;align=left;spacingLeft=6;overflow=hidden;whiteSpace=wrap;html=1;" parent="uY_qVMkkKcw11evk1t33-80" vertex="1">
          <mxGeometry x="30" width="200" height="34" as="geometry">
            <mxRectangle width="200" height="34" as="alternateBounds" />
          </mxGeometry>
        </mxCell>
        <mxCell id="uY_qVMkkKcw11evk1t33-83" value="" style="edgeStyle=entityRelationEdgeStyle;fontSize=12;html=1;endArrow=ERzeroToMany;startArrow=ERmandOne;rounded=0;entryX=1;entryY=0.5;entryDx=0;entryDy=0;exitX=0;exitY=0.5;exitDx=0;exitDy=0;" parent="1" source="uY_qVMkkKcw11evk1t33-59" target="bgpJgehSFbvpk0qUqzGR-72" edge="1">
          <mxGeometry width="100" height="100" relative="1" as="geometry">
            <mxPoint x="1550" y="370" as="sourcePoint" />
            <mxPoint x="1290" y="474" as="targetPoint" />
          </mxGeometry>
        </mxCell>
        <mxCell id="3QNGo9HYekui6b5nl_Mc-84" value="Orders" style="shape=table;startSize=30;container=1;collapsible=1;childLayout=tableLayout;fixedRows=1;rowLines=0;fontStyle=1;align=center;resizeLast=1;html=1;" parent="1" vertex="1">
          <mxGeometry x="1050" y="180" width="210" height="300" as="geometry">
            <mxRectangle x="1380" y="80" width="80" height="30" as="alternateBounds" />
          </mxGeometry>
        </mxCell>
        <mxCell id="3QNGo9HYekui6b5nl_Mc-85" value="" style="shape=tableRow;horizontal=0;startSize=0;swimlaneHead=0;swimlaneBody=0;fillColor=none;collapsible=0;dropTarget=0;points=[[0,0.5],[1,0.5]];portConstraint=eastwest;top=0;left=0;right=0;bottom=1;" parent="3QNGo9HYekui6b5nl_Mc-84" vertex="1">
          <mxGeometry y="30" width="210" height="40" as="geometry" />
        </mxCell>
        <mxCell id="3QNGo9HYekui6b5nl_Mc-86" value="PK" style="shape=partialRectangle;connectable=0;fillColor=none;top=0;left=0;bottom=0;right=0;fontStyle=1;overflow=hidden;whiteSpace=wrap;html=1;" parent="3QNGo9HYekui6b5nl_Mc-85" vertex="1">
          <mxGeometry width="30" height="40" as="geometry">
            <mxRectangle width="30" height="40" as="alternateBounds" />
          </mxGeometry>
        </mxCell>
        <mxCell id="3QNGo9HYekui6b5nl_Mc-87" value="Orders_ID INTEGER NOT NULL" style="shape=partialRectangle;connectable=0;fillColor=none;top=0;left=0;bottom=0;right=0;align=left;spacingLeft=6;fontStyle=5;overflow=hidden;whiteSpace=wrap;html=1;" parent="3QNGo9HYekui6b5nl_Mc-85" vertex="1">
          <mxGeometry x="30" width="180" height="40" as="geometry">
            <mxRectangle width="180" height="40" as="alternateBounds" />
          </mxGeometry>
        </mxCell>
        <mxCell id="3QNGo9HYekui6b5nl_Mc-88" value="" style="shape=tableRow;horizontal=0;startSize=0;swimlaneHead=0;swimlaneBody=0;fillColor=none;collapsible=0;dropTarget=0;points=[[0,0.5],[1,0.5]];portConstraint=eastwest;top=0;left=0;right=0;bottom=0;" parent="3QNGo9HYekui6b5nl_Mc-84" vertex="1">
          <mxGeometry y="70" width="210" height="50" as="geometry" />
        </mxCell>
        <mxCell id="3QNGo9HYekui6b5nl_Mc-89" value="&lt;b&gt;FK&lt;/b&gt;" style="shape=partialRectangle;connectable=0;fillColor=none;top=0;left=0;bottom=0;right=0;editable=1;overflow=hidden;whiteSpace=wrap;html=1;" parent="3QNGo9HYekui6b5nl_Mc-88" vertex="1">
          <mxGeometry width="30" height="50" as="geometry">
            <mxRectangle width="30" height="50" as="alternateBounds" />
          </mxGeometry>
        </mxCell>
        <mxCell id="3QNGo9HYekui6b5nl_Mc-90" value="&lt;br&gt;&lt;span style=&quot;font-weight: 700;&quot;&gt;Custumer_ID INTEGER NOT NULL&lt;/span&gt;" style="shape=partialRectangle;connectable=0;fillColor=none;top=0;left=0;bottom=0;right=0;align=left;spacingLeft=6;overflow=hidden;whiteSpace=wrap;html=1;" parent="3QNGo9HYekui6b5nl_Mc-88" vertex="1">
          <mxGeometry x="30" width="180" height="50" as="geometry">
            <mxRectangle width="180" height="50" as="alternateBounds" />
          </mxGeometry>
        </mxCell>
        <mxCell id="3QNGo9HYekui6b5nl_Mc-94" value="" style="shape=tableRow;horizontal=0;startSize=0;swimlaneHead=0;swimlaneBody=0;fillColor=none;collapsible=0;dropTarget=0;points=[[0,0.5],[1,0.5]];portConstraint=eastwest;top=0;left=0;right=0;bottom=0;" parent="3QNGo9HYekui6b5nl_Mc-84" vertex="1">
          <mxGeometry y="120" width="210" height="20" as="geometry" />
        </mxCell>
        <mxCell id="3QNGo9HYekui6b5nl_Mc-95" value="" style="shape=partialRectangle;connectable=0;fillColor=none;top=0;left=0;bottom=0;right=0;editable=1;overflow=hidden;whiteSpace=wrap;html=1;" parent="3QNGo9HYekui6b5nl_Mc-94" vertex="1">
          <mxGeometry width="30" height="20" as="geometry">
            <mxRectangle width="30" height="20" as="alternateBounds" />
          </mxGeometry>
        </mxCell>
        <mxCell id="3QNGo9HYekui6b5nl_Mc-96" value="Discount INTEGER" style="shape=partialRectangle;connectable=0;fillColor=none;top=0;left=0;bottom=0;right=0;align=left;spacingLeft=6;overflow=hidden;whiteSpace=wrap;html=1;" parent="3QNGo9HYekui6b5nl_Mc-94" vertex="1">
          <mxGeometry x="30" width="180" height="20" as="geometry">
            <mxRectangle width="180" height="20" as="alternateBounds" />
          </mxGeometry>
        </mxCell>
        <mxCell id="3QNGo9HYekui6b5nl_Mc-97" value="" style="shape=tableRow;horizontal=0;startSize=0;swimlaneHead=0;swimlaneBody=0;fillColor=none;collapsible=0;dropTarget=0;points=[[0,0.5],[1,0.5]];portConstraint=eastwest;top=0;left=0;right=0;bottom=0;" parent="3QNGo9HYekui6b5nl_Mc-84" vertex="1">
          <mxGeometry y="140" width="210" height="30" as="geometry" />
        </mxCell>
        <mxCell id="3QNGo9HYekui6b5nl_Mc-98" value="" style="shape=partialRectangle;connectable=0;fillColor=none;top=0;left=0;bottom=0;right=0;editable=1;overflow=hidden;whiteSpace=wrap;html=1;" parent="3QNGo9HYekui6b5nl_Mc-97" vertex="1">
          <mxGeometry width="30" height="30" as="geometry">
            <mxRectangle width="30" height="30" as="alternateBounds" />
          </mxGeometry>
        </mxCell>
        <mxCell id="3QNGo9HYekui6b5nl_Mc-99" value="Price INTEGER NOT NULL" style="shape=partialRectangle;connectable=0;fillColor=none;top=0;left=0;bottom=0;right=0;align=left;spacingLeft=6;overflow=hidden;whiteSpace=wrap;html=1;" parent="3QNGo9HYekui6b5nl_Mc-97" vertex="1">
          <mxGeometry x="30" width="180" height="30" as="geometry">
            <mxRectangle width="180" height="30" as="alternateBounds" />
          </mxGeometry>
        </mxCell>
        <mxCell id="bgpJgehSFbvpk0qUqzGR-10" value="" style="shape=tableRow;horizontal=0;startSize=0;swimlaneHead=0;swimlaneBody=0;fillColor=none;collapsible=0;dropTarget=0;points=[[0,0.5],[1,0.5]];portConstraint=eastwest;top=0;left=0;right=0;bottom=0;" parent="3QNGo9HYekui6b5nl_Mc-84" vertex="1">
          <mxGeometry y="170" width="210" height="40" as="geometry" />
        </mxCell>
        <mxCell id="bgpJgehSFbvpk0qUqzGR-11" value="&lt;b&gt;FK&lt;/b&gt;" style="shape=partialRectangle;connectable=0;fillColor=none;top=0;left=0;bottom=0;right=0;editable=1;overflow=hidden;whiteSpace=wrap;html=1;" parent="bgpJgehSFbvpk0qUqzGR-10" vertex="1">
          <mxGeometry width="30" height="40" as="geometry">
            <mxRectangle width="30" height="40" as="alternateBounds" />
          </mxGeometry>
        </mxCell>
        <mxCell id="bgpJgehSFbvpk0qUqzGR-12" value="&lt;b&gt;Ticket ID INTEGER NOT NULL&lt;/b&gt;" style="shape=partialRectangle;connectable=0;fillColor=none;top=0;left=0;bottom=0;right=0;align=left;spacingLeft=6;overflow=hidden;whiteSpace=wrap;html=1;" parent="bgpJgehSFbvpk0qUqzGR-10" vertex="1">
          <mxGeometry x="30" width="180" height="40" as="geometry">
            <mxRectangle width="180" height="40" as="alternateBounds" />
          </mxGeometry>
        </mxCell>
        <mxCell id="bgpJgehSFbvpk0qUqzGR-14" value="" style="shape=tableRow;horizontal=0;startSize=0;swimlaneHead=0;swimlaneBody=0;fillColor=none;collapsible=0;dropTarget=0;points=[[0,0.5],[1,0.5]];portConstraint=eastwest;top=0;left=0;right=0;bottom=0;" parent="3QNGo9HYekui6b5nl_Mc-84" vertex="1">
          <mxGeometry y="210" width="210" height="40" as="geometry" />
        </mxCell>
        <mxCell id="bgpJgehSFbvpk0qUqzGR-15" value="" style="shape=partialRectangle;connectable=0;fillColor=none;top=0;left=0;bottom=0;right=0;editable=1;overflow=hidden;whiteSpace=wrap;html=1;" parent="bgpJgehSFbvpk0qUqzGR-14" vertex="1">
          <mxGeometry width="30" height="40" as="geometry">
            <mxRectangle width="30" height="40" as="alternateBounds" />
          </mxGeometry>
        </mxCell>
        <mxCell id="bgpJgehSFbvpk0qUqzGR-16" value="Date INTEGER NULL&amp;nbsp;" style="shape=partialRectangle;connectable=0;fillColor=none;top=0;left=0;bottom=0;right=0;align=left;spacingLeft=6;overflow=hidden;whiteSpace=wrap;html=1;" parent="bgpJgehSFbvpk0qUqzGR-14" vertex="1">
          <mxGeometry x="30" width="180" height="40" as="geometry">
            <mxRectangle width="180" height="40" as="alternateBounds" />
          </mxGeometry>
        </mxCell>
        <mxCell id="3QNGo9HYekui6b5nl_Mc-100" value="" style="shape=tableRow;horizontal=0;startSize=0;swimlaneHead=0;swimlaneBody=0;fillColor=none;collapsible=0;dropTarget=0;points=[[0,0.5],[1,0.5]];portConstraint=eastwest;top=0;left=0;right=0;bottom=0;" parent="3QNGo9HYekui6b5nl_Mc-84" vertex="1">
          <mxGeometry y="250" width="210" height="50" as="geometry" />
        </mxCell>
        <mxCell id="3QNGo9HYekui6b5nl_Mc-101" value="&lt;b&gt;FK&lt;/b&gt;" style="shape=partialRectangle;connectable=0;fillColor=none;top=0;left=0;bottom=0;right=0;editable=1;overflow=hidden;whiteSpace=wrap;html=1;" parent="3QNGo9HYekui6b5nl_Mc-100" vertex="1">
          <mxGeometry width="30" height="50" as="geometry">
            <mxRectangle width="30" height="50" as="alternateBounds" />
          </mxGeometry>
        </mxCell>
        <mxCell id="3QNGo9HYekui6b5nl_Mc-102" value="&lt;span style=&quot;color: rgb(0, 0, 0); font-family: Helvetica; font-size: 12px; font-style: normal; font-variant-ligatures: normal; font-variant-caps: normal; letter-spacing: normal; orphans: 2; text-align: left; text-indent: 0px; text-transform: none; widows: 2; word-spacing: 0px; -webkit-text-stroke-width: 0px; white-space: normal; background-color: rgb(251, 251, 251); text-decoration: underline; font-weight: 700;&quot;&gt;&lt;span style=&quot;text-align: center; text-wrap: nowrap;&quot;&gt;Administrator for selling&lt;/span&gt;_ID INTEGER NOT NULL&lt;/span&gt;&lt;div&gt;&lt;br&gt;&lt;/div&gt;" style="shape=partialRectangle;connectable=0;fillColor=none;top=0;left=0;bottom=0;right=0;align=left;spacingLeft=6;overflow=hidden;whiteSpace=wrap;html=1;" parent="3QNGo9HYekui6b5nl_Mc-100" vertex="1">
          <mxGeometry x="30" width="180" height="50" as="geometry">
            <mxRectangle width="180" height="50" as="alternateBounds" />
          </mxGeometry>
        </mxCell>
        <mxCell id="bgpJgehSFbvpk0qUqzGR-71" value="&lt;div&gt;&lt;br&gt;&lt;/div&gt;" style="text;whiteSpace=wrap;html=1;" parent="1" vertex="1">
          <mxGeometry x="1000" y="870" width="210" height="80" as="geometry" />
        </mxCell>
      </root>
    </mxGraphModel>
  </diagram>
</mxfile>
